<svg xmlns="http://www.w3.org/2000/svg" viewBox="0 0 1600 900" preserveAspectRatio="xMidYMid slice" role="img" aria-label="A glowing Earth from space wrapped in golden AI light-streams and circuit energy">
  <defs>
    <!-- Deep space backdrop -->
    <radialGradient id="space" cx="52%" cy="42%" r="85%">
      <stop offset="0%"  stop-color="#0c1018"/>
      <stop offset="45%" stop-color="#05070d"/>
      <stop offset="100%" stop-color="#000000"/>
    </radialGradient>

    <!-- Earth ocean body -->
    <radialGradient id="earth" cx="38%" cy="34%" r="78%">
      <stop offset="0%"  stop-color="#1d6fae"/>
      <stop offset="32%" stop-color="#0f4a7d"/>
      <stop offset="68%" stop-color="#072a4c"/>
      <stop offset="100%" stop-color="#02070f"/>
    </radialGradient>

    <!-- Terminator / night side shading -->
    <radialGradient id="terminator" cx="34%" cy="32%" r="82%">
      <stop offset="0%"  stop-color="#000000" stop-opacity="0"/>
      <stop offset="58%" stop-color="#000000" stop-opacity="0"/>
      <stop offset="100%" stop-color="#000000" stop-opacity="0.82"/>
    </radialGradient>

    <!-- Gold atmosphere rim -->
    <radialGradient id="rim" cx="50%" cy="50%" r="50%">
      <stop offset="78%" stop-color="#DAA643" stop-opacity="0"/>
      <stop offset="92%" stop-color="#F1E5AC" stop-opacity="0.55"/>
      <stop offset="97%" stop-color="#DAA643" stop-opacity="0.85"/>
      <stop offset="100%" stop-color="#DAA643" stop-opacity="0"/>
    </radialGradient>

    <!-- Ambient gold halo behind the planet -->
    <radialGradient id="halo" cx="50%" cy="50%" r="50%">
      <stop offset="0%"  stop-color="#DAA643" stop-opacity="0.30"/>
      <stop offset="40%" stop-color="#CA9438" stop-opacity="0.12"/>
      <stop offset="100%" stop-color="#000000" stop-opacity="0"/>
    </radialGradient>

    <linearGradient id="stream" x1="0%" y1="0%" x2="100%" y2="100%">
      <stop offset="0%"  stop-color="#F1E5AC" stop-opacity="0"/>
      <stop offset="45%" stop-color="#FFD963"/>
      <stop offset="70%" stop-color="#DAA643"/>
      <stop offset="100%" stop-color="#CA9438" stop-opacity="0"/>
    </linearGradient>

    <linearGradient id="grid" x1="0%" y1="0%" x2="100%" y2="0%">
      <stop offset="0%"   stop-color="#DAA643" stop-opacity="0"/>
      <stop offset="50%"  stop-color="#FFD963" stop-opacity="0.8"/>
      <stop offset="100%" stop-color="#DAA643" stop-opacity="0"/>
    </linearGradient>

    <filter id="soft" x="-60%" y="-60%" width="220%" height="220%">
      <feGaussianBlur stdDeviation="7"/>
    </filter>
    <filter id="softer" x="-80%" y="-80%" width="260%" height="260%">
      <feGaussianBlur stdDeviation="16"/>
    </filter>
    <filter id="spark" x="-200%" y="-200%" width="500%" height="500%">
      <feGaussianBlur stdDeviation="2.4"/>
    </filter>

    <clipPath id="globe"><circle cx="800" cy="430" r="270"/></clipPath>
  </defs>

  <!-- Space -->
  <rect width="1600" height="900" fill="url(#space)"/>

  <!-- Starfield -->
  <g fill="#ffffff">
    <circle cx="140" cy="120" r="1.4" opacity=".7"/>
    <circle cx="300" cy="80"  r="1"   opacity=".5"/>
    <circle cx="470" cy="160" r="1.2" opacity=".6"/>
    <circle cx="620" cy="70"  r="0.9" opacity=".45"/>
    <circle cx="980" cy="110" r="1.3" opacity=".65"/>
    <circle cx="1180" cy="70" r="1"   opacity=".5"/>
    <circle cx="1320" cy="150" r="1.5" opacity=".75"/>
    <circle cx="1460" cy="90"  r="1"   opacity=".5"/>
    <circle cx="90"  cy="320" r="1.1" opacity=".55"/>
    <circle cx="200" cy="520" r="1"   opacity=".5"/>
    <circle cx="120" cy="700" r="1.3" opacity=".6"/>
    <circle cx="300" cy="820" r="1"   opacity=".45"/>
    <circle cx="560" cy="800" r="1.2" opacity=".55"/>
    <circle cx="900" cy="840" r="1"   opacity=".5"/>
    <circle cx="1150" cy="800" r="1.3" opacity=".6"/>
    <circle cx="1380" cy="700" r="1"  opacity=".5"/>
    <circle cx="1500" cy="520" r="1.2" opacity=".55"/>
    <circle cx="1520" cy="320" r="1"  opacity=".5"/>
    <circle cx="1420" cy="430" r="0.9" opacity=".4"/>
    <circle cx="60"  cy="460" r="0.9" opacity=".4"/>
  </g>
  <g fill="#FFD963">
    <circle cx="420" cy="250" r="1.4" opacity=".8"/>
    <circle cx="1240" cy="260" r="1.2" opacity=".75"/>
    <circle cx="250" cy="640" r="1.3" opacity=".7"/>
    <circle cx="1300" cy="560" r="1.4" opacity=".8"/>
    <circle cx="700" cy="120" r="1.1" opacity=".7"/>
  </g>

  <!-- Ambient gold halo -->
  <circle cx="800" cy="430" r="470" fill="url(#halo)"/>

  <!-- Orbiting energy streams (behind planet) -->
  <g fill="none" stroke="url(#stream)" stroke-linecap="round">
    <ellipse cx="800" cy="430" rx="430" ry="150" transform="rotate(-22 800 430)"
             stroke-width="3" opacity="0.65" stroke-dasharray="380 900" stroke-dashoffset="120" filter="url(#soft)"/>
    <ellipse cx="800" cy="430" rx="380" ry="200" transform="rotate(28 800 430)"
             stroke-width="2.4" opacity="0.55" stroke-dasharray="300 760" stroke-dashoffset="60" filter="url(#soft)"/>
  </g>

  <!-- EARTH -->
  <g clip-path="url(#globe)">
    <circle cx="800" cy="430" r="270" fill="url(#earth)"/>

    <!-- Abstract glowing AI network / circuit landmasses -->
    <g stroke="#FFD963" stroke-width="1.1" fill="none" opacity="0.55">
      <path d="M610 360 Q700 320 760 360 T900 350"/>
      <path d="M600 470 Q690 500 780 470 T960 500"/>
      <path d="M650 560 Q740 600 840 560"/>
      <path d="M720 300 Q760 380 720 470 T760 600"/>
      <path d="M880 320 Q920 410 880 500"/>
      <path d="M560 420 Q650 430 700 410"/>
    </g>
    <!-- Latitude/longitude wire lines -->
    <g stroke="#DAA643" stroke-width="0.8" fill="none" opacity="0.30">
      <path d="M530 430 H1070"/>
      <path d="M560 350 Q800 320 1040 350"/>
      <path d="M560 510 Q800 540 1040 510"/>
      <ellipse cx="800" cy="430" rx="90"  ry="270"/>
      <ellipse cx="800" cy="430" rx="185" ry="270"/>
    </g>
    <!-- Network nodes -->
    <g fill="#FFD963">
      <circle cx="700" cy="360" r="3.2"/>
      <circle cx="780" cy="360" r="2.4"/>
      <circle cx="900" cy="350" r="3"/>
      <circle cx="780" cy="470" r="3.4"/>
      <circle cx="960" cy="500" r="2.6"/>
      <circle cx="650" cy="560" r="2.6"/>
      <circle cx="840" cy="560" r="3"/>
      <circle cx="720" cy="470" r="2.2"/>
      <circle cx="880" cy="430" r="2.4"/>
      <circle cx="700" cy="410" r="2"/>
    </g>
    <g fill="#fff" opacity="0.9">
      <circle cx="700" cy="360" r="1.1"/>
      <circle cx="780" cy="470" r="1.2"/>
      <circle cx="900" cy="350" r="1"/>
      <circle cx="840" cy="560" r="1"/>
    </g>

    <!-- Specular highlight + terminator -->
    <ellipse cx="690" cy="320" rx="120" ry="80" fill="#9fd4ff" opacity="0.18" filter="url(#softer)"/>
    <circle cx="800" cy="430" r="270" fill="url(#terminator)"/>
  </g>

  <!-- Atmosphere rim glow -->
  <circle cx="800" cy="430" r="286" fill="url(#rim)" filter="url(#soft)"/>
  <circle cx="800" cy="430" r="272" fill="none" stroke="#F1E5AC" stroke-width="1.2" opacity="0.45"/>

  <!-- Orbiting energy streams (in front) -->
  <g fill="none" stroke="url(#stream)" stroke-linecap="round">
    <ellipse cx="800" cy="430" rx="455" ry="135" transform="rotate(-14 800 430)"
             stroke-width="3.4" opacity="0.85" stroke-dasharray="520 1100" stroke-dashoffset="780" filter="url(#soft)"/>
    <ellipse cx="800" cy="430" rx="345" ry="235" transform="rotate(40 800 430)"
             stroke-width="2.2" opacity="0.6" stroke-dasharray="240 900" stroke-dashoffset="500" filter="url(#soft)"/>
  </g>

  <!-- Light-stream comets weaving around -->
  <g fill="none" stroke-linecap="round" filter="url(#soft)">
    <path d="M360 250 Q620 360 800 250" stroke="url(#grid)" stroke-width="2.6" opacity="0.7"/>
    <path d="M1240 620 Q980 520 800 620" stroke="url(#grid)" stroke-width="2.6" opacity="0.7"/>
    <path d="M300 600 Q520 520 700 600" stroke="url(#grid)" stroke-width="1.8" opacity="0.5"/>
  </g>

  <!-- Gold sparks / particles -->
  <g fill="#FFD963" filter="url(#spark)">
    <circle cx="1115" cy="250" r="3.6" opacity=".95"/>
    <circle cx="1180" cy="300" r="2"  opacity=".8"/>
    <circle cx="470" cy="300" r="3"   opacity=".9"/>
    <circle cx="420" cy="360" r="1.8" opacity=".7"/>
    <circle cx="1080" cy="640" r="3.2" opacity=".9"/>
    <circle cx="520" cy="640" r="2.6" opacity=".85"/>
    <circle cx="980" cy="200" r="2.2" opacity=".8"/>
    <circle cx="640" cy="700" r="2.4" opacity=".8"/>
    <circle cx="900" cy="690" r="2"   opacity=".75"/>
    <circle cx="1240" cy="430" r="2.8" opacity=".85"/>
    <circle cx="360" cy="470" r="2.2" opacity=".8"/>
  </g>
  <g fill="#F1E5AC">
    <circle cx="1115" cy="250" r="1.2"/>
    <circle cx="470" cy="300" r="1"/>
    <circle cx="1080" cy="640" r="1.1"/>
  </g>

  <!-- Cinematic vignette to seat the headline -->
  <rect width="1600" height="900" fill="url(#vignette)"/>
  <radialGradient id="vignette" cx="50%" cy="42%" r="75%">
    <stop offset="55%" stop-color="#000000" stop-opacity="0"/>
    <stop offset="100%" stop-color="#000000" stop-opacity="0.72"/>
  </radialGradient>
</svg>
